<svg id="es5m7q5zyaig1" xmlns="http://www.w3.org/2000/svg" xmlns:xlink="http://www.w3.org/1999/xlink" viewBox="0 0 3333.333300 3333.333300" shape-rendering="geometricPrecision" text-rendering="geometricPrecision"><style><![CDATA[#es5m7q5zyaig4_to {animation: es5m7q5zyaig4_to__to 3000ms linear 1 normal forwards}@keyframes es5m7q5zyaig4_to__to { 0% {transform: translate(114957.680702px,-35249.754502px)} 3.333333% {transform: translate(114957.680702px,-35249.754502px)} 16.666667% {transform: translate(104430.461554px,-51720.111655px)} 26.666667% {transform: translate(102511.014091px,-54673.191719px)} 36.666667% {transform: translate(114957.680702px,-35249.754502px)} 46.666667% {transform: translate(104430.461554px,-51720.111655px)} 56.666667% {transform: translate(102511.014091px,-54673.191719px)} 66.666667% {transform: translate(114957.680702px,-35249.754502px)} 76.666667% {transform: translate(104430.461554px,-51720.111655px)} 86.666667% {transform: translate(102511.014091px,-54673.191719px)} 93.333333% {transform: translate(102511.014091px,-54673.191719px)} 96.666667% {transform: translate(109229.212503px,-45095.362919px)} 100% {transform: translate(114957.680702px,-35249.754502px)} }#es5m7q5zyaig4_tr {animation: es5m7q5zyaig4_tr__tr 3000ms linear 1 normal forwards}@keyframes es5m7q5zyaig4_tr__tr { 0% {transform: rotate(10.322776deg)} 3.333333% {transform: rotate(10.322776deg)} 16.666667% {transform: rotate(0deg)} 26.666667% {transform: rotate(-1.721280deg)} 36.666667% {transform: rotate(10.322776deg)} 46.666667% {transform: rotate(0deg)} 56.666667% {transform: rotate(-1.721280deg)} 66.666667% {transform: rotate(10.322776deg)} 76.666667% {transform: rotate(0deg)} 86.666667% {transform: rotate(-1.721280deg)} 93.333333% {transform: rotate(-1.721280deg)} 100% {transform: rotate(10.322776deg)} }#es5m7q5zyaig20_to {animation: es5m7q5zyaig20_to__to 3000ms linear 1 normal forwards}@keyframes es5m7q5zyaig20_to__to { 0% {transform: translate(57229.321931px,-79787.084827px)} 16.666667% {transform: translate(57352.603415px,-79736.078606px)} 26.666667% {transform: translate(57149.683067px,-79373.028136px)} 36.666667% {transform: translate(57477.009148px,-79797.349174px)} 46.666667% {transform: translate(57352.603415px,-79736.078606px)} 56.666667% {transform: translate(57311.798432px,-79324.578131px)} 63.333333% {transform: translate(57254.176742px,-78731.398315px)} 66.666667% {transform: translate(57223.182343px,-79839.662518px)} 80% {transform: translate(57314.362236px,-79422.246352px)} 86.666667% {transform: translate(57152.678195px,-79146.491765px)} 93.333333% {transform: translate(57149.540210px,-79042.069957px)} 96.666667% {transform: translate(57408.462162px,-77935.179662px)} 100% {transform: translate(57625.477711px,-76165.058627px)} }#es5m7q5zyaig20 {animation: es5m7q5zyaig20_c_o 3000ms linear 1 normal forwards}@keyframes es5m7q5zyaig20_c_o { 0% {opacity: 0} 16.666667% {opacity: 0} 26.666667% {opacity: 1} 36.666667% {opacity: 0} 46.666667% {opacity: 0} 56.666667% {opacity: 1} 66.666667% {opacity: 0} 76.666667% {opacity: 0} 86.666667% {opacity: 1} 93.333333% {opacity: 0.500000} 96.666667% {opacity: 0.180000} 100% {opacity: 0} }]]></style><g id="es5m7q5zyaig2" transform="matrix(1.33333000000000 0 0 -1.33333000000000 0 3333.32999999999993)"><g id="es5m7q5zyaig3" transform="matrix(0.10000000000000 0 0 0.10000000000000 0 0)"><g id="es5m7q5zyaig4_to" transform="translate(114957.680702,-35249.754502)"><g id="es5m7q5zyaig4_tr" transform="rotate(10.322776)"><g id="es5m7q5zyaig4" transform="translate(-104875.770581,52467.198920)"><path id="es5m7q5zyaig5" d="M5766.169744,12911.289256C5834.578957,12871.334630,5914.422179,12870.002809,5992.399042,12866.724481C6077.584971,12863.036361,6162.032561,12858.221317,6247.413330,12856.991943C6420.861603,12854.533197,6594.279112,12854.020958,6767.737639,12854.738093C7111.280893,12856.172361,7454.854911,12858.426212,7798.387910,12860.680063C8485.638493,12865.392660,9172.786529,12859.348242,9859.944820,12847.771645C10247.737175,12841.214989,10635.468002,12831.687347,11023.096281,12819.393616C11184.402970,12814.271228,11184.300423,13064.755998,11023.096281,13069.775939C10336.132830,13090.982625,9649.107851,13103.276356,8961.867522,13104.198385C8274.832288,13105.120415,7586.945913,13101.637191,6900.382396,13073.873849C6709.829256,13066.087819,6519.265861,13057.789551,6329.030617,13044.061551C6230.062349,13036.992656,6130.971025,13031.358029,6032.802625,13017.015343C5941.709979,13003.594686,5844.351702,13005.950985,5766.169744,12952.473255C5751.690085,12942.535822,5749.885254,12920.816897,5766.169744,12911.289256L5766.169744,12911.289256" transform="matrix(1 0 0 1 -171.14128891572182 -985.73964941163831)" fill="rgb(16,15,13)" stroke="none" stroke-width="1"/><path id="es5m7q5zyaig6" d="M5717.096640,12905.356358C5711.918008,12816.534151,5739.318610,12730.170691,5768.759901,12646.778215C5799.185645,12560.517202,5835.671926,12475.895353,5875.542263,12393.732251C5952.555183,12234.835777,6055.266422,12084.852258,6168.140086,11949.416321C6402.347553,11668.299671,6697.560329,11440.660751,7029.997725,11287.501351C7769.506343,10946.862553,8596.180050,10945.120941,9394.396919,10941.023031C9905.204852,10938.359389,10416.002530,10935.798195,10926.789953,10933.134554C11093.634189,10932.314971,11093.839283,11191.405353,10926.789953,11192.122488C10487.067714,11193.966547,10047.242928,11195.913055,9607.510435,11197.757115C9207.586750,11199.498726,8806.740141,11195.605712,8407.585561,11224.393532C8034.888148,11251.337292,7661.565198,11307.786007,7308.833718,11434.923676C6982.938831,11552.328808,6682.321820,11738.783729,6435.285702,11981.584917C6300.620767,12114.049869,6179.276708,12260.959955,6077.508902,12420.061325C6026.419905,12499.868129,5976.992172,12580.801858,5933.460901,12665.013916C5888.309385,12752.401854,5853.074179,12847.883166,5793.432749,12926.050806C5769.241873,12957.707163,5719.619300,12948.486865,5717.096640,12905.356358L5717.096640,12905.356358" transform="matrix(1 0 0 1 -171.14128891572545 -985.73964941163467)" fill="rgb(16,15,13)" stroke="none" stroke-width="1"/><path id="es5m7q5zyaig7" d="M15162.213186,12947.862639C15095.762624,12993.349444,15014.647817,12998.881623,14935.994142,13007.487234C14850.879996,13016.809980,14766.586228,13027.054756,14680.959346,13033.406517C14507.654639,13046.314935,14334.247385,13056.149920,14160.635036,13063.628606C13817.409678,13078.381083,13473.569038,13087.703829,13130.036039,13092.416426C12442.867493,13101.841620,11755.493854,13103.480784,11068.427856,13092.518874C10680.697029,13086.372009,10292.966202,13077.151710,9905.337923,13065.165322C9744.379894,13060.247830,9743.713337,12809.660612,9905.337923,12814.783000C10592.198826,12836.604373,11279.367372,12849.512790,11966.535917,12855.249865C12653.704462,12860.884491,13340.770461,12852.688671,14028.041553,12850.537268C14218.471637,12850.025029,14408.901720,12848.590760,14599.331803,12851.254402C14698.289816,12852.586223,14796.632547,12853.610701,14895.180371,12860.269805C14985.934611,12866.314223,15081.713662,12859.655118,15162.213186,12906.678640C15178.518185,12916.206281,15176.672336,12937.925206,15162.213186,12947.862639L15162.213186,12947.862639" transform="matrix(1 0 0 1 143.73961299903749 -981.53066502665388)" fill="rgb(16,15,13)" stroke="none" stroke-width="1"/><path id="es5m7q5zyaig8" d="M15136.289041,12921.450437C15084.297629,12853.322678,15052.097819,12772.388948,15014.052821,12695.553129C14975.495088,12617.692833,14932.322732,12542.496178,14885.971414,12469.041135C14797.165570,12328.380362,14699.950858,12196.837439,14587.764261,12073.797681C14353.341444,11817.063597,14064.260989,11613.192557,13743.801102,11477.859068C13039.917369,11180.658120,12244.356471,11197.049761,11494.736703,11193.873881C10997.485505,11191.722478,10500.234308,11189.673523,10002.880563,11187.522120C9836.159384,11186.804985,9835.820978,10927.714603,10002.880563,10928.534185C10456.241574,10930.890484,10909.500039,10933.246782,11362.861050,10935.500633C11769.870744,10937.652036,12178.008456,10934.373708,12584.095225,10967.771677C12981.260391,11000.452512,13379.963765,11069.092510,13750.876856,11218.973582C14100.972874,11360.351489,14415.177384,11566.578827,14672.673313,11843.700015C14809.881418,11991.429683,14928.220845,12156.063231,15025.127915,12332.785615C15074.145460,12422.222509,15114.241401,12517.294029,15150.132908,12612.672892C15184.588755,12704.261189,15218.326772,12802.303694,15212.584131,12900.755990C15210.122999,12943.784049,15160.490172,12953.209243,15136.289041,12921.450437L15136.289041,12921.450437" transform="matrix(1 0 0 1 51.74449581124463 -986.15701559253284)" fill="rgb(16,15,13)" stroke="none" stroke-width="1"/><path id="es5m7q5zyaig9" d="M14200.291183,11535.147876C14235.054672,11540.987398,14263.767877,11564.243040,14291.455612,11584.937487C14323.963063,11609.217606,14357.085797,11632.575695,14389.798342,11656.446023C14451.018999,11701.113246,14513.060033,11744.141304,14576.946916,11784.915512C14712.821908,11871.483868,14855.875202,11948.627031,15005.183872,12009.583447C15161.465750,12073.305953,15326.156496,12120.227027,15492.590543,12148.092817C15576.884311,12162.230608,15662.203552,12170.119085,15747.625339,12172.475384C15828.637599,12174.626787,15921.442782,12155.776399,15997.327683,12187.944995C16032.398813,12202.697473,16023.374663,12251.872397,15997.327683,12269.083620C15926.980329,12315.799798,15809.358732,12302.071799,15728.859208,12298.998366C15641.489025,12295.515142,15554.426482,12285.885053,15468.286865,12271.644814C15292.213384,12242.549651,15123.215658,12188.252339,14960.370762,12115.924221C14808.190771,12048.411148,14664.214552,11963.584404,14530.082862,11865.029660C14466.093432,11818.006138,14403.539662,11768.114080,14344.472495,11715.148588C14294.737121,11670.686261,14211.468824,11607.783337,14195.471466,11539.962921C14194.753636,11536.889488,14197.317315,11534.635637,14200.291183,11535.147876L14200.291183,11535.147876" transform="matrix(1 0 0 1 -68.79455869889716 -999.50429784823791)" fill="rgb(16,15,13)" stroke="none" stroke-width="1"/><path id="es5m7q5zyaig10" d="M14745.945518,12913.765002C14798.962402,12894.299928,14859.670323,12892.455868,14915.558527,12886.104107C14973.190033,12879.649898,15031.129181,12876.883809,15089.068328,12873.605480C15211.407095,12866.536585,15333.848409,12861.516645,15456.187175,12855.369779C15575.141885,12849.325361,15694.096595,12844.407869,15813.051306,12837.748765C15934.159506,12831.089660,16058.651763,12814.288228,16179.862511,12818.283690C16251.440431,12820.639989,16275.333921,12937.123091,16197.603170,12949.621717C16078.443366,12968.574553,15953.951109,12967.550075,15833.458191,12972.979806C15711.119425,12978.409538,15588.780658,12983.634373,15466.441892,12986.502910C15347.487181,12989.269000,15228.429924,12991.625298,15109.372667,12990.088582C15048.152010,12989.371448,14986.931353,12988.961657,14925.813243,12984.556403C14866.951171,12980.253597,14801.936269,12979.741358,14745.945518,12960.276284C14722.769859,12952.285359,14723.385142,12922.063270,14745.945518,12913.765002L14745.945518,12913.765002" transform="matrix(1 0 0 1 -42.52844543361243 -981.31544730111091)" fill="rgb(16,15,13)" stroke="none" stroke-width="1"/><path id="es5m7q5zyaig11" d="M16115.540853,12920.068280C16106.414156,12848.252401,16093.083025,12777.768343,16090.314251,12705.440226C16087.545478,12630.448466,16083.853780,12555.559154,16083.135950,12480.567395C16082.418120,12409.058859,16081.597742,12337.447876,16080.879912,12265.939340C16080.264629,12211.539580,16064.267272,12126.405493,16096.979817,12077.845255C16129.487268,12029.592361,16194.194528,12029.694808,16246.391035,12028.260540C16317.046031,12026.314032,16387.495932,12033.485376,16457.535645,12042.398331C16593.308090,12059.507106,16727.849969,12076.001195,16864.852980,12079.996658C17146.550039,12088.090031,17428.349646,12081.328479,17710.149252,12091.778150C17976.771878,12101.613135,18257.546013,12098.437255,18501.095528,12221.681908C18611.231182,12277.413489,18710.086648,12353.019935,18804.942774,12431.187575C18896.517392,12506.691573,18991.988801,12581.478437,19062.336156,12677.881778C19111.046058,12744.575269,19206.209827,12886.260520,19104.072851,12948.651205C19060.285212,12975.390070,18998.141631,12988.093592,18948.508804,12999.670189C18884.006638,13014.627562,18819.607019,13018.725472,18753.669192,13023.335621C18468.588077,13043.108039,18183.712055,13051.611203,17898.015657,13060.011919C17755.270004,13064.314725,17612.934541,13077.735381,17470.188889,13080.194127C17324.161727,13082.755321,17178.134566,13085.214067,17032.107405,13087.775261C16872.749112,13090.541351,16712.775536,13095.561291,16553.417243,13091.463381C16477.019606,13089.516873,16400.621969,13085.828754,16324.942162,13075.993769C16256.850845,13067.183262,16177.581888,13060.933949,16119.847834,13020.467084C16055.653310,12975.492518,16048.269914,12900.500758,16039.553405,12828.787327C16030.016519,12750.619687,16024.376425,12672.042256,16022.735670,12593.259930C16021.094916,12514.067812,16022.940764,12435.797724,16034.733688,12357.322741C16046.526612,12278.335519,16067.343686,12202.319282,16074.932177,12122.717373C16083.341044,12034.612301,16215.319244,12053.360241,16194.194528,12138.801672C16164.148209,12259.894922,16178.915001,12390.413367,16179.222642,12514.580051C16179.325189,12573.589960,16181.683774,12632.702317,16186.298397,12691.609778C16188.759529,12724.393061,16191.938491,12757.073896,16195.937830,12789.652283C16199.014245,12814.854432,16197.270943,12854.706610,16209.679150,12876.732878C16227.009621,12907.774549,16292.229617,12903.676639,16324.942162,12905.213355C16388.418857,12908.081892,16451.895551,12905.418251,16515.269698,12902.037475C16643.248559,12895.071027,16771.637608,12893.636758,16899.719016,12892.714729C17415.941439,12888.924162,17931.856221,12894.763684,18448.078644,12900.910549C18575.544769,12902.447266,18703.010893,12912.999385,18830.374471,12917.302191C18883.801543,12919.043803,18937.638804,12926.215146,18991.168424,12921.400101C19007.883612,12919.863385,19019.984177,12917.199743,19035.161157,12912.384698C19058.336816,12904.906012,19064.284552,12906.750072,19065.515118,12884.211565C19067.053325,12856.653118,19032.802572,12817.108283,19016.600120,12796.618731C18951.790313,12713.943390,18864.420129,12644.278914,18784.535889,12576.663393C18698.396271,12503.618141,18610.923540,12431.904710,18514.221564,12373.202144C18300.615822,12243.400833,18063.629326,12234.078087,17820.284906,12223.935759C17570.685109,12213.486088,17320.982765,12210.719998,17071.075327,12211.642028C16930.585712,12212.154267,16789.378268,12212.154267,16649.606483,12196.889551C16515.269698,12182.137074,16382.060932,12151.607641,16246.391035,12153.656597C16239.110186,12153.759044,16216.344716,12157.549611,16207.935848,12155.090865C16186.503491,12160.213253,16185.375472,12156.320238,16204.449245,12143.309373C16204.346697,12150.070925,16204.244150,12156.934925,16204.141603,12163.696477C16213.370848,12196.889551,16201.885565,12252.416236,16200.655000,12286.428892C16198.398962,12354.556652,16195.937830,12422.684411,16193.784340,12490.812171C16191.323208,12565.803930,16185.478019,12640.693242,16180.965944,12715.582554C16176.658963,12786.066612,16161.174341,12855.013953,16150.714531,12924.780877C16147.433021,12946.602250,16117.796891,12937.996638,16115.540853,12920.068280L16115.540853,12920.068280" transform="matrix(1 0 0 1 -70.63996227489406 -1023.92197587994087)" fill="rgb(16,15,13)" stroke="none" stroke-width="1"/><path id="es5m7q5zyaig12" d="M15653.369542,12217.171843C15710.488636,12192.940722,15772.133225,12189.929755,15831.453911,12176.738849C15886.126790,12164.694978,15940.310427,12152.364349,15995.594860,12144.335102C16047.576905,12136.735993,16100.904367,12132.434611,16152.152547,12120.390741C16195.083600,12110.210803,16219.790360,12074.652709,16264.189141,12068.057256C16290.119008,12064.042632,16321.675167,12094.152309,16326.445284,12123.545088C16352.375151,12282.409474,16170.376840,12299.758383,16077.176092,12300.475280C16009.782901,12300.905418,15942.878952,12300.331901,15875.852692,12290.725480C15803.077830,12280.115404,15722.719705,12277.964713,15653.369542,12248.715313C15640.282298,12243.123516,15640.282298,12222.763640,15653.369542,12217.171843L15653.369542,12217.171843" transform="matrix(1 0 0 1 -125.56750796875349 -996.82461037401299)" fill="rgb(16,15,13)" stroke="none" stroke-width="1"/><path id="es5m7q5zyaig13" d="M16377.919078,12766.228217C16354.948513,12704.247323,16358.230023,12630.075146,16359.152947,12564.815923C16360.075872,12498.122432,16360.691155,12425.077180,16385.815210,12362.379152C16390.532379,12350.597660,16406.837378,12352.236824,16407.965397,12365.350137C16413.913133,12434.502374,16399.351435,12505.703567,16395.659737,12574.855804C16392.378228,12637.758728,16399.146341,12704.452219,16386.225398,12766.228217C16385.302474,12770.633471,16379.354738,12769.813889,16377.919078,12766.228217L16377.919078,12766.228217" transform="matrix(1 0 0 1 -70.63996227489042 -1023.92197587994087)" fill="rgb(16,15,13)" stroke="none" stroke-width="1"/><path id="es5m7q5zyaig14" d="M16471.291793,12769.524635C16427.606701,12687.976219,16416.941796,12566.165834,16430.683116,12475.909358C16432.118777,12466.689060,16448.116134,12466.689060,16449.449247,12475.909358C16456.114813,12521.805954,16457.960662,12568.009894,16463.088020,12614.008937C16468.830661,12664.618130,16482.264340,12715.432218,16483.700000,12766.143859C16483.802547,12772.598068,16474.470755,12775.261710,16471.291793,12769.524635L16471.291793,12769.524635" transform="matrix(1 0 0 1 -70.63996227488678 -1023.92197587994087)" fill="rgb(16,15,13)" stroke="none" stroke-width="1"/><path id="es5m7q5zyaig15" d="M16633.109813,12789.392068C16605.934814,12728.025860,16584.912646,12658.156489,16573.324816,12592.180132C16571.889156,12583.369625,16584.810099,12575.993386,16589.014532,12585.521028C16615.881889,12647.194579,16637.314246,12716.551711,16648.696982,12782.835411C16650.235189,12791.543471,16637.314246,12799.022157,16633.109813,12789.392068L16633.109813,12789.392068" transform="matrix(1 0 0 1 -70.63996227488678 -1023.92197587994087)" fill="rgb(16,15,13)" stroke="none" stroke-width="1"/><path id="es5m7q5zyaig16" d="M15248.468082,12667.638779C15209.089971,12579.738602,15175.762143,12484.257291,15154.432333,12390.415143C15152.894126,12383.551144,15163.353936,12378.121412,15166.532898,12385.292756C15205.705915,12473.295380,15236.572611,12569.801169,15257.697327,12663.745764C15258.825346,12668.970600,15250.929214,12673.068510,15248.468082,12667.638779L15248.468082,12667.638779" transform="matrix(1 0 0 1 57.63853880884744 -909.40146805366567)" fill="rgb(16,15,13)" stroke="none" stroke-width="1"/><path id="es5m7q5zyaig17" d="M15276.945675,12587.086308C15267.101147,12533.198787,15251.821620,12485.663027,15232.235111,12434.644043C15229.568885,12427.575148,15240.438885,12421.120939,15245.258601,12427.062909C15279.816996,12470.193415,15296.019447,12530.227802,15289.969165,12585.242249C15289.251335,12592.003801,15278.381335,12595.077233,15276.945675,12587.086308L15276.945675,12587.086308" transform="matrix(1 0 0 1 82.14635131588329 -949.32627279067310)" fill="rgb(16,15,13)" stroke="none" stroke-width="1"/><path id="es5m7q5zyaig18" d="M14703.017341,12643.588186C14704.453001,12643.895529,14705.786114,12644.202872,14707.221774,12644.612663C14705.170831,12647.993439,14703.222435,12651.476663,14701.171492,12654.959887C14676.765267,12627.811231,14668.971682,12587.651709,14657.178758,12553.843949C14641.181401,12507.640010,14620.466874,12462.562996,14597.393762,12419.432489C14550.939896,12332.761686,14490.334523,12253.057329,14422.858489,12181.651241C14349.537267,12104.098288,14266.884252,12036.687663,14181.154823,11973.272500C14141.366524,11943.869993,14099.937470,11916.311546,14061.789925,11884.860084C14041.793228,11868.468443,14019.437946,11843.163846,13994.929174,11834.148443C13966.933798,11823.903668,13957.602006,11829.230951,13935.862007,11805.155728C13911.148141,11777.597281,13934.631441,11725.348924,13974.522288,11738.872028C14003.543136,11748.707013,14008.260305,11756.595490,14026.616247,11778.929101C14044.767095,11801.160265,14072.454830,11809.765877,14097.578885,11823.493876C14148.852467,11851.257219,14196.947087,11886.499248,14243.503499,11921.433934C14333.129720,11988.844559,14419.269338,12061.787363,14494.231315,12145.384735C14560.784424,12219.659360,14617.800647,12301.720015,14659.947532,12392.386281C14691.326964,12459.694459,14746.599885,12580.173023,14710.913472,12653.628066C14707.939604,12659.877379,14697.172152,12655.472126,14699.633284,12648.915469C14700.146020,12647.481201,14700.658756,12646.046932,14701.171492,12644.715111C14701.479133,12643.895529,14702.196963,12643.383290,14703.017341,12643.588186L14703.017341,12643.588186" transform="matrix(1 0 0 1 51.74449581123918 -587.56455401138010)" fill="rgb(16,15,13)" stroke="none" stroke-width="1"/><path id="es5m7q5zyaig19" d="M13413.289879,11539.857914C13469.383177,11521.929557,13533.577702,11537.399168,13587.517510,11556.352004C13634.073923,11572.743645,13704.934013,11594.974809,13718.777880,11647.530509C13723.187408,11664.229494,13710.779201,11678.572180,13694.371655,11679.596657C13647.302507,11682.567642,13603.002132,11637.490629,13561.265436,11618.640241C13512.247892,11596.511525,13458.000442,11587.496122,13410.213464,11563.216003C13399.856200,11557.991168,13403.342804,11542.931347,13413.289879,11539.857914L13413.289879,11539.857914" transform="matrix(1 0 0 1 143.73961299903749 -981.53066502665388)" fill="rgb(16,15,13)" stroke="none" stroke-width="1"/><g id="es5m7q5zyaig20_to" transform="translate(57229.321931,-79787.084827)"><g id="es5m7q5zyaig20" transform="translate(-57844.297439,78882.060927)" opacity="0"><path id="es5m7q5zyaig21" d="M9397.315967,16264.246109C9231.171265,16110.636650,9212.027981,15811.636219,9233.268258,15585.754907C9259.922723,15302.259458,9362.405048,15028.422849,9361.689002,14741.453606C9361.528256,14677.823874,9355.456475,14614.533049,9338.585543,14553.699297C9321.992262,14493.797539,9292.239800,14439.148834,9267.433904,14383.652863C9253.069135,14351.456727,9281.513716,14321.124578,9308.555430,14335.951746C9400.304365,14386.279390,9435.573307,14511.081780,9449.185497,14620.209736C9464.865454,14745.774666,9452.736503,14871.254869,9432.994079,14995.294719C9388.708796,15273.621842,9300.547400,15548.220991,9318.090539,15835.105507C9327.099573,15982.445193,9365.627257,16110.128290,9424.686478,16239.760100C9434.382332,16261.111222,9412.411396,16278.226010,9397.315967,16264.246109L9397.315967,16264.246109" transform="matrix(1.21013831273060 1.19175359259421 0.17632698070846 1 -7370.93500244144252 -12073.50450155942781)" fill="rgb(16,15,13)" stroke="none" stroke-width="1"/><path id="es5m7q5zyaig22" d="M10664.753315,16971.402996C10616.456710,16900.486770,10590.518292,16819.572797,10566.479589,16734.253037C10540.175841,16640.968969,10515.479544,16548.955802,10492.902160,16454.400834C10448.843382,16270.543952,10439.564004,16071.097363,10459.949409,15882.326334C10481.138540,15685.760452,10533.672970,15496.904696,10572.178734,15304.490421C10603.377902,15148.847522,10615.799117,15005.151083,10601.624319,14841.967510C10599.870736,14821.972015,10597.897955,14802.145974,10596.655833,14782.150479C10596.217437,14774.355625,10595.779042,14766.306591,10594.829184,14758.511737C10597.386493,14779.354498,10592.125743,14746.056916,10591.468150,14742.074762C10585.038345,14703.185219,10574.882175,14665.905483,10567.794776,14627.270119C10561.145773,14591.600190,10551.135736,14554.151000,10534.915091,14522.886858C10516.721665,14487.555835,10503.423659,14451.292819,10479.896418,14419.774496C10458.268892,14390.797974,10484.864904,14354.704411,10513.652895,14369.023219C10572.763262,14398.338648,10631.508300,14433.839124,10673.594297,14491.876895C10694.052767,14520.006151,10716.995481,14545.932513,10733.946785,14577.281382C10753.674596,14613.629125,10769.602977,14653.450662,10783.120181,14693.272198C10837.262063,14853.066704,10836.312205,15019.046258,10815.342272,15186.974525C10791.230503,15380.066614,10737.380886,15564.686035,10696.317812,15753.287611C10655.985398,15938.245939,10636.403719,16124.220987,10630.923772,16314.771276C10627.781935,16423.729778,10630.339244,16536.331527,10643.783382,16643.595496C10657.154454,16750.351105,10682.362213,16855.581633,10680.389431,16963.947048C10680.243300,16972.250262,10669.940998,16979.028396,10664.753315,16971.402996L10664.753315,16971.402996" transform="matrix(1.21013831273060 1.19175359259421 0.17632698070846 1 -8332.91975637391806 -13971.83587158346927)" fill="rgb(16,15,13)" stroke="none" stroke-width="1"/><path id="es5m7q5zyaig23" d="M12021.390376,16190.573811C12001.662565,16187.100017,11988.656823,16176.255003,11976.674004,16158.208221C11959.138172,16131.688772,11941.967670,16104.406784,11927.792873,16075.260808C11900.831531,16019.510657,11878.911741,15960.710345,11861.595106,15900.046047C11826.011981,15775.667290,11814.248360,15642.646413,11822.943210,15512.167336C11840.040646,15255.699695,11939.264229,15005.671281,11907.918930,14745.390940C11900.904597,14687.098989,11888.410316,14627.620864,11871.385946,14572.124893C11853.923180,14515.527475,11830.249807,14465.623464,11801.461816,14415.380547C11790.574987,14396.401772,11808.841478,14366.916890,11828.057828,14375.304830C12024.605279,14460.709317,12061.430526,14746.153480,12038.122483,14958.393798C12022.340234,15102.852776,11986.464844,15242.143427,11960.234162,15384.230059C11935.391733,15518.776016,11925.673960,15650.610720,11939.994889,15787.529025C11947.374552,15858.529977,11961.476283,15927.666943,11980.254237,15995.702461C11990.556538,16032.728018,12001.370301,16071.956468,12014.595241,16107.626397C12024.824477,16135.332019,12034.688382,16155.920601,12027.235654,16186.676384C12026.504994,16189.811270,12023.947685,16190.997444,12021.390376,16190.573811L12021.390376,16190.573811" transform="matrix(1.21013831273060 1.19175359259421 0.17632698070846 1 -9274.92407302888751 -15658.06906199859804)" fill="rgb(16,15,13)" stroke="none" stroke-width="1"/></g></g><path id="es5m7q5zyaig24" d="M6542.462155,12480.586219C6637.277263,12330.295357,6754.324596,12191.990883,6884.026249,12070.385393C6947.359377,12011.068141,7013.738157,11955.131664,7082.639596,11902.371069C7152.474215,11848.790891,7224.769965,11791.420146,7309.330357,11764.169042C7332.444487,11756.690356,7348.852034,11787.629579,7332.526525,11803.918772C7273.797764,11862.826234,7199.522853,11904.624919,7132.682612,11953.799843C7060.622720,12006.765335,6991.598224,12063.828736,6925.670652,12124.272914C6797.681537,12241.575598,6682.295468,12369.327953,6573.185286,12504.251652C6559.177343,12521.565323,6530.741015,12499.129264,6542.462155,12480.586219L6542.462155,12480.586219" transform="matrix(1 0 0 1 -171.14128891572727 -985.73964941163467)" fill="rgb(16,15,13)" stroke="none" stroke-width="1"/><path id="es5m7q5zyaig25" d="M7485.504238,11691.055479C7554.631282,11645.466227,7639.283965,11602.130825,7724.377602,11609.507063C7740.374960,11610.941332,7751.983299,11635.528794,7733.627356,11643.724615C7659.639577,11676.507898,7580.216799,11691.567718,7507.100671,11728.039120C7482.448333,11740.230404,7462.420872,11706.320195,7485.504238,11691.055479L7485.504238,11691.055479" transform="matrix(1 0 0 1 -171.14128891572727 -985.73964941163104)" fill="rgb(16,15,13)" stroke="none" stroke-width="1"/><path id="es5m7q5zyaig26" d="M7258.771533,12272.237864C7295.493673,12184.645030,7372.875763,12104.530883,7447.858249,12048.491959C7461.117597,12038.554526,7475.238342,12059.351421,7464.901588,12070.518227C7432.804325,12105.350465,7400.655789,12140.080255,7368.968716,12175.322284C7337.476482,12210.256970,7311.726889,12250.314044,7279.209183,12284.121804C7271.292542,12292.317625,7253.890288,12283.916909,7258.771533,12272.237864L7258.771533,12272.237864" transform="matrix(1 0 0 1 -171.14128891572727 -985.73964941163467)" fill="rgb(16,15,13)" stroke="none" stroke-width="1"/><path id="es5m7q5zyaig27" d="M7477.349957,12234.310929C7506.165710,12173.456960,7549.912331,12110.041797,7611.973874,12079.205022C7624.012911,12073.160604,7634.595778,12087.298395,7626.043345,12097.440723C7583.373470,12147.947468,7539.473029,12193.024482,7510.083012,12253.468660C7499.387343,12275.392480,7467.002949,12256.234749,7477.349957,12234.310929L7477.349957,12234.310929" transform="matrix(1 0 0 1 -171.14128891572727 -985.73964941163467)" fill="rgb(16,15,13)" stroke="none" stroke-width="1"/><path id="es5m7q5zyaig28" d="M7676.799257,12306.042853C7722.248160,12254.409183,7765.061601,12199.394736,7818.170777,12155.547096C7829.594531,12146.121902,7849.745049,12158.313185,7840.259437,12172.553423C7801.445335,12231.153542,7750.264045,12280.328466,7702.743690,12331.962136C7686.643785,12349.378255,7661.294126,12323.561420,7676.799257,12306.042853L7676.799257,12306.042853" transform="matrix(1 0 0 1 -171.14128891572727 -985.73964941163467)" fill="rgb(16,15,13)" stroke="none" stroke-width="1"/></g></g></g></g></g><path id="es5m7q5zyaig29" d="M9374.708950,16229.423557C9198.930358,16078.579248,9178.677053,15784.961175,9201.148945,15563.145991C9229.348967,15284.753791,9337.773724,15015.846561,9337.016157,14734.043100C9336.846091,14671.558778,9330.422237,14609.407262,9312.573046,14549.668589C9295.017604,14490.845132,9263.539948,14437.180169,9237.295684,14382.683190C9222.097975,14351.066622,9252.191913,14321.280487,9280.801639,14335.840749C9377.870630,14385.262436,9415.184640,14507.818237,9429.586131,14614.981762C9446.175289,14738.286377,9433.343042,14861.507790,9412.455855,14983.314777C9365.602693,15256.631686,9272.329264,15526.287729,9290.889641,15808.007989C9300.421063,15952.695387,9341.182772,16078.080039,9403.666538,16205.378326C9413.924606,16226.345102,9390.679686,16243.151804,9374.708950,16229.423557L9374.708950,16229.423557" transform="matrix(1 0 0 1 -3314.57292946982398 -1674.78121406552600)" fill="rgb(16,15,13)" stroke="none" stroke-width="1"/><path id="es5m7q5zyaig30" d="M10624.364792,16924.445020C10573.267712,16854.805370,10545.825256,16775.347943,10520.392671,16691.564038C10492.563701,16599.959193,10466.435392,16509.602370,10442.548860,16416.749502C10395.935336,16236.202260,10386.117894,16040.345942,10407.685345,15854.973013C10430.103126,15661.945546,10485.683762,15476.489415,10526.422281,15287.538822C10559.430530,15134.697677,10572.571988,14993.587942,10557.575266,14833.341864C10555.720001,14813.706312,10553.632828,14794.237162,10552.318683,14774.601609C10551.854866,14766.947072,10551.391050,14759.042930,10550.386115,14751.388392C10553.091710,14771.855960,10547.525916,14739.157773,10546.830191,14735.247302C10540.027555,14697.057817,10529.282480,14660.449159,10521.784119,14622.509278C10514.749574,14587.481449,10504.159105,14550.706388,10486.997908,14520.005037C10467.749537,14485.310014,10453.680447,14449.699774,10428.788980,14418.748818C10405.907383,14390.293907,10434.045563,14354.850070,10464.502824,14368.911123C10527.040702,14397.698840,10589.192067,14432.560266,10633.718418,14489.553290C10655.363171,14517.176186,10679.636217,14542.635843,10697.570441,14573.420396C10718.442168,14609.113837,10735.294155,14648.218539,10749.595153,14687.323242C10806.876448,14844.241260,10805.871513,15007.232987,10783.685641,15172.138349C10758.175752,15361.754554,10701.203668,15543.050611,10657.759555,15728.257137C10615.088469,15909.885999,10594.371347,16092.513279,10588.573645,16279.633440C10585.249630,16386.630561,10587.955224,16497.205347,10602.178919,16602.538439C10616.325312,16707.372322,10642.994741,16810.708578,10640.907568,16917.123289C10640.752963,16925.277035,10629.853283,16931.933155,10624.364792,16924.445020L10624.364792,16924.445020" transform="matrix(1 0 0 1 -3314.57292946982398 -1674.78121406552600)" fill="rgb(16,15,13)" stroke="none" stroke-width="1"/><path id="es5m7q5zyaig31" d="M11999.799025,16157.842627C11978.927298,16154.431365,11965.167419,16143.781574,11952.489777,16126.059656C11933.937131,16100.017588,11915.770998,16073.226707,11900.774276,16044.605393C11872.249583,15989.858810,11849.058775,15932.116973,11830.738037,15872.544703C11793.091626,15750.404909,11780.645892,15619.778563,11789.844913,15491.648262C11807.933743,15239.797339,11912.910799,14994.269729,11879.747944,14738.674738C11872.326885,14681.432110,11859.108125,14623.024661,11841.096598,14568.527683C11822.621254,14512.949084,11797.575182,14463.943404,11767.117921,14414.604918C11755.599820,14395.967783,11774.925493,14367.013663,11795.256101,14375.250611C12003.200343,14459.117718,12042.160900,14739.423552,12017.501341,14947.843295C12000.803960,15089.701843,11962.848338,15226.485099,11935.096671,15366.014005C11908.813756,15498.137978,11898.532498,15627.599503,11913.683826,15762.053118C11921.491397,15831.775970,11936.410817,15899.668390,11956.277609,15966.479190C11967.177289,16002.838243,11978.618087,16041.360535,11992.609874,16076.388364C12003.432251,16103.595252,12013.868115,16123.813215,12005.983240,16154.015358C12005.210213,16157.093813,12002.504619,16158.258634,11999.799025,16157.842627L11999.799025,16157.842627" transform="matrix(1 0 0 1 -3314.57292946982125 -1674.78121406552600)" fill="rgb(16,15,13)" stroke="none" stroke-width="1"/></svg>